<svg xmlns="http://www.w3.org/2000/svg" viewBox="0 0 128 128">
  <rect width="128" height="128" rx="28" class="bg"/>
  <path class="letter" fill-rule="evenodd" d="
    M38 22 H68 C82 22 92 31 92 42 C92 52 84 61 74 62
    C86 63 96 72 96 84 C96 97 84 106 70 106 H38 Z
    M54 36 V50 H66 C74 50 78 46 78 42 C78 38 74 36 66 36 Z
    M54 70 V90 H68 C78 90 82 84 82 80 C82 76 78 70 68 70 Z
  "/>
  <style>
    .bg { fill: #17171c; }
    .letter { fill: #c4ad6c; }
    @media (prefers-color-scheme: light) {
      .bg { fill: #f8f6f0; }
      .letter { fill: #9a8a50; }
    }
  </style>
</svg>
